<mxfile host="app.diagrams.net" agent="Mozilla/5.0 (X11; Linux x86_64; rv:139.0) Gecko/20100101 Firefox/139.0" version="28.0.4">
  <diagram name="Page-1" id="e3a06f82-3646-2815-327d-82caf3d4e204">
    <mxGraphModel dx="1425" dy="806" grid="1" gridSize="10" guides="1" tooltips="1" connect="1" arrows="1" fold="1" page="1" pageScale="1.5" pageWidth="1169" pageHeight="826" background="none" math="0" shadow="0">
      <root>
        <mxCell id="0" style=";html=1;" />
        <mxCell id="1" style=";html=1;" parent="0" />
        <mxCell id="JztUD99mnlcokoezC9-C-1" value="&lt;font style=&quot;font-size: 20px;&quot; face=&quot;Helvetica&quot;&gt;DMZ Network&lt;/font&gt;" style="rounded=1;whiteSpace=wrap;html=1;shadow=0;comic=0;strokeColor=#036897;strokeWidth=2;fillColor=none;fontFamily=Verdana;fontSize=28;fontColor=#6881B3;align=center;arcSize=11;verticalAlign=top;" vertex="1" parent="1">
          <mxGeometry x="315" y="511" width="348" height="290" as="geometry" />
        </mxCell>
        <mxCell id="L6lRWaiFYsqNyg9JIEbJ-4" value="" style="whiteSpace=wrap;html=1;aspect=fixed;" parent="1" vertex="1">
          <mxGeometry x="800" y="483.5" width="300" height="300" as="geometry" />
        </mxCell>
        <mxCell id="L6lRWaiFYsqNyg9JIEbJ-16" value="" style="rounded=0;orthogonalLoop=1;jettySize=auto;html=1;endArrow=none;endFill=0;" parent="1" source="L6lRWaiFYsqNyg9JIEbJ-9" target="L6lRWaiFYsqNyg9JIEbJ-14" edge="1">
          <mxGeometry relative="1" as="geometry">
            <mxPoint x="900" y="657.0714285714284" as="sourcePoint" />
            <mxPoint x="940" y="639.9285714285713" as="targetPoint" />
          </mxGeometry>
        </mxCell>
        <mxCell id="6a7d8f32e03d9370-1" value="" style="verticalLabelPosition=bottom;aspect=fixed;html=1;verticalAlign=top;strokeColor=none;shape=mxgraph.citrix.laptop_2;fillColor=#66B2FF;gradientColor=#0066CC;fontSize=14;" parent="1" vertex="1">
          <mxGeometry x="538.9999999999999" y="75.5" width="116" height="86.5" as="geometry" />
        </mxCell>
        <mxCell id="6a7d8f32e03d9370-6" value="" style="verticalLabelPosition=bottom;aspect=fixed;html=1;verticalAlign=top;strokeColor=none;shape=mxgraph.citrix.pda;fillColor=#66B2FF;gradientColor=#0066CC;fontSize=14;" parent="1" vertex="1">
          <mxGeometry x="500.00000000000006" y="101" width="30" height="61" as="geometry" />
        </mxCell>
        <mxCell id="6a7d8f32e03d9370-62" value="Simplified Wire-Server Architecture" style="text;strokeColor=none;fillColor=none;html=1;fontSize=24;fontStyle=1;verticalAlign=middle;align=center;" parent="1" vertex="1">
          <mxGeometry x="385" y="20" width="630" height="40" as="geometry" />
        </mxCell>
        <mxCell id="L6lRWaiFYsqNyg9JIEbJ-8" value="&lt;font style=&quot;font-size: 18px&quot; face=&quot;Helvetica&quot;&gt;Private Network&lt;/font&gt;" style="rounded=1;whiteSpace=wrap;html=1;shadow=0;comic=0;strokeColor=#036897;strokeWidth=2;fillColor=none;fontFamily=Verdana;fontSize=28;fontColor=#6881B3;align=center;arcSize=11;verticalAlign=top;" parent="1" vertex="1">
          <mxGeometry x="776" y="101" width="348" height="700" as="geometry" />
        </mxCell>
        <mxCell id="L6lRWaiFYsqNyg9JIEbJ-9" value="" style="fontColor=#0066CC;verticalAlign=top;verticalLabelPosition=bottom;labelPosition=center;align=center;html=1;fillColor=#CCCCCC;strokeColor=#6881B3;gradientColor=none;gradientDirection=north;strokeWidth=2;shape=mxgraph.networks.storage;rounded=0;shadow=0;comic=0;" parent="1" vertex="1">
          <mxGeometry x="820" y="498.5" width="40" height="40" as="geometry" />
        </mxCell>
        <mxCell id="L6lRWaiFYsqNyg9JIEbJ-15" value="" style="rounded=0;orthogonalLoop=1;jettySize=auto;html=1;endArrow=none;endFill=0;" parent="1" source="L6lRWaiFYsqNyg9JIEbJ-12" target="L6lRWaiFYsqNyg9JIEbJ-14" edge="1">
          <mxGeometry relative="1" as="geometry" />
        </mxCell>
        <mxCell id="L6lRWaiFYsqNyg9JIEbJ-12" value="" style="fontColor=#0066CC;verticalAlign=top;verticalLabelPosition=bottom;labelPosition=center;align=center;html=1;fillColor=#CCCCCC;strokeColor=#6881B3;gradientColor=none;gradientDirection=north;strokeWidth=2;shape=mxgraph.networks.storage;rounded=0;shadow=0;comic=0;" parent="1" vertex="1">
          <mxGeometry x="820" y="565.5" width="40" height="40" as="geometry" />
        </mxCell>
        <mxCell id="L6lRWaiFYsqNyg9JIEbJ-14" value="" style="fontColor=#0066CC;verticalAlign=top;verticalLabelPosition=bottom;labelPosition=center;align=center;html=1;fillColor=#CCCCCC;strokeColor=#6881B3;gradientColor=none;gradientDirection=north;strokeWidth=2;shape=mxgraph.networks.storage;rounded=0;shadow=0;comic=0;" parent="1" vertex="1">
          <mxGeometry x="910" y="528.5" width="40" height="40" as="geometry" />
        </mxCell>
        <mxCell id="L6lRWaiFYsqNyg9JIEbJ-17" value="" style="rounded=0;orthogonalLoop=1;jettySize=auto;html=1;endArrow=none;endFill=0;" parent="1" source="L6lRWaiFYsqNyg9JIEbJ-12" target="L6lRWaiFYsqNyg9JIEbJ-9" edge="1">
          <mxGeometry relative="1" as="geometry">
            <mxPoint x="910" y="667.0714285714284" as="sourcePoint" />
            <mxPoint x="950" y="649.9285714285713" as="targetPoint" />
          </mxGeometry>
        </mxCell>
        <mxCell id="L6lRWaiFYsqNyg9JIEbJ-18" value="&lt;div&gt;Database clusters&lt;/div&gt;" style="text;html=1;strokeColor=none;fillColor=none;align=center;verticalAlign=middle;whiteSpace=wrap;rounded=0;fontSize=16;" parent="1" vertex="1">
          <mxGeometry x="905" y="626.75" width="40" height="22.5" as="geometry" />
        </mxCell>
        <mxCell id="L6lRWaiFYsqNyg9JIEbJ-20" value="" style="whiteSpace=wrap;html=1;aspect=fixed;" parent="1" vertex="1">
          <mxGeometry x="800" y="154" width="300" height="300" as="geometry" />
        </mxCell>
        <mxCell id="L6lRWaiFYsqNyg9JIEbJ-21" value="" style="rounded=0;orthogonalLoop=1;jettySize=auto;html=1;endArrow=none;endFill=0;exitX=0.908;exitY=0.612;exitDx=0;exitDy=0;exitPerimeter=0;" parent="1" source="L6lRWaiFYsqNyg9JIEbJ-30" edge="1">
          <mxGeometry relative="1" as="geometry">
            <mxPoint x="920" y="253.59375" as="sourcePoint" />
            <mxPoint x="980" y="281.90625" as="targetPoint" />
          </mxGeometry>
        </mxCell>
        <mxCell id="L6lRWaiFYsqNyg9JIEbJ-23" value="" style="rounded=0;orthogonalLoop=1;jettySize=auto;html=1;endArrow=none;endFill=0;" parent="1" edge="1">
          <mxGeometry relative="1" as="geometry">
            <mxPoint x="920" y="360.5" as="sourcePoint" />
            <mxPoint x="980" y="330.5" as="targetPoint" />
          </mxGeometry>
        </mxCell>
        <mxCell id="L6lRWaiFYsqNyg9JIEbJ-26" value="" style="rounded=0;orthogonalLoop=1;jettySize=auto;html=1;endArrow=none;endFill=0;" parent="1" source="L6lRWaiFYsqNyg9JIEbJ-29" target="L6lRWaiFYsqNyg9JIEbJ-30" edge="1">
          <mxGeometry relative="1" as="geometry">
            <mxPoint x="870" y="335.5" as="sourcePoint" />
            <mxPoint x="870" y="280" as="targetPoint" />
          </mxGeometry>
        </mxCell>
        <mxCell id="L6lRWaiFYsqNyg9JIEbJ-27" value="Wire Messaging Services" style="text;html=1;strokeColor=none;fillColor=none;align=center;verticalAlign=middle;whiteSpace=wrap;rounded=0;fontSize=16;" parent="1" vertex="1">
          <mxGeometry x="872.5" y="294" width="105" height="20" as="geometry" />
        </mxCell>
        <mxCell id="L6lRWaiFYsqNyg9JIEbJ-28" value="" style="verticalLabelPosition=bottom;aspect=fixed;html=1;verticalAlign=top;strokeColor=none;shape=mxgraph.citrix.tower_server;rounded=0;shadow=0;comic=0;fontFamily=Verdana;" parent="1" vertex="1">
          <mxGeometry x="980" y="263" width="65" height="85" as="geometry" />
        </mxCell>
        <mxCell id="L6lRWaiFYsqNyg9JIEbJ-29" value="" style="verticalLabelPosition=bottom;aspect=fixed;html=1;verticalAlign=top;strokeColor=none;shape=mxgraph.citrix.tower_server;rounded=0;shadow=0;comic=0;fontFamily=Verdana;" parent="1" vertex="1">
          <mxGeometry x="850" y="343" width="65" height="85" as="geometry" />
        </mxCell>
        <mxCell id="L6lRWaiFYsqNyg9JIEbJ-30" value="" style="verticalLabelPosition=bottom;aspect=fixed;html=1;verticalAlign=top;strokeColor=none;shape=mxgraph.citrix.tower_server;rounded=0;shadow=0;comic=0;fontFamily=Verdana;" parent="1" vertex="1">
          <mxGeometry x="840" y="180.5" width="65" height="85" as="geometry" />
        </mxCell>
        <mxCell id="L6lRWaiFYsqNyg9JIEbJ-35" value="" style="rounded=0;orthogonalLoop=1;jettySize=auto;html=1;endArrow=none;endFill=0;" parent="1" source="L6lRWaiFYsqNyg9JIEbJ-36" target="L6lRWaiFYsqNyg9JIEbJ-39" edge="1">
          <mxGeometry relative="1" as="geometry">
            <mxPoint x="1030" y="818.5714285714284" as="sourcePoint" />
            <mxPoint x="1070" y="801.4285714285713" as="targetPoint" />
          </mxGeometry>
        </mxCell>
        <mxCell id="L6lRWaiFYsqNyg9JIEbJ-36" value="" style="fontColor=#0066CC;verticalAlign=top;verticalLabelPosition=bottom;labelPosition=center;align=center;html=1;fillColor=#CCCCCC;strokeColor=#6881B3;gradientColor=none;gradientDirection=north;strokeWidth=2;shape=mxgraph.networks.storage;rounded=0;shadow=0;comic=0;" parent="1" vertex="1">
          <mxGeometry x="950" y="660" width="40" height="40" as="geometry" />
        </mxCell>
        <mxCell id="L6lRWaiFYsqNyg9JIEbJ-37" value="" style="rounded=0;orthogonalLoop=1;jettySize=auto;html=1;endArrow=none;endFill=0;" parent="1" source="L6lRWaiFYsqNyg9JIEbJ-38" target="L6lRWaiFYsqNyg9JIEbJ-39" edge="1">
          <mxGeometry relative="1" as="geometry" />
        </mxCell>
        <mxCell id="L6lRWaiFYsqNyg9JIEbJ-38" value="" style="fontColor=#0066CC;verticalAlign=top;verticalLabelPosition=bottom;labelPosition=center;align=center;html=1;fillColor=#CCCCCC;strokeColor=#6881B3;gradientColor=none;gradientDirection=north;strokeWidth=2;shape=mxgraph.networks.storage;rounded=0;shadow=0;comic=0;" parent="1" vertex="1">
          <mxGeometry x="950" y="727" width="40" height="40" as="geometry" />
        </mxCell>
        <mxCell id="L6lRWaiFYsqNyg9JIEbJ-39" value="" style="fontColor=#0066CC;verticalAlign=top;verticalLabelPosition=bottom;labelPosition=center;align=center;html=1;fillColor=#CCCCCC;strokeColor=#6881B3;gradientColor=none;gradientDirection=north;strokeWidth=2;shape=mxgraph.networks.storage;rounded=0;shadow=0;comic=0;" parent="1" vertex="1">
          <mxGeometry x="1040" y="690" width="40" height="40" as="geometry" />
        </mxCell>
        <mxCell id="L6lRWaiFYsqNyg9JIEbJ-40" value="" style="rounded=0;orthogonalLoop=1;jettySize=auto;html=1;endArrow=none;endFill=0;" parent="1" source="L6lRWaiFYsqNyg9JIEbJ-38" target="L6lRWaiFYsqNyg9JIEbJ-36" edge="1">
          <mxGeometry relative="1" as="geometry">
            <mxPoint x="1040" y="828.5714285714284" as="sourcePoint" />
            <mxPoint x="1080" y="811.4285714285713" as="targetPoint" />
          </mxGeometry>
        </mxCell>
        <mxCell id="L6lRWaiFYsqNyg9JIEbJ-41" value="" style="rounded=0;orthogonalLoop=1;jettySize=auto;html=1;endArrow=none;endFill=0;" parent="1" source="L6lRWaiFYsqNyg9JIEbJ-42" target="L6lRWaiFYsqNyg9JIEbJ-45" edge="1">
          <mxGeometry relative="1" as="geometry">
            <mxPoint x="890" y="815.0714285714284" as="sourcePoint" />
            <mxPoint x="930" y="797.9285714285713" as="targetPoint" />
          </mxGeometry>
        </mxCell>
        <mxCell id="L6lRWaiFYsqNyg9JIEbJ-42" value="" style="fontColor=#0066CC;verticalAlign=top;verticalLabelPosition=bottom;labelPosition=center;align=center;html=1;fillColor=#CCCCCC;strokeColor=#6881B3;gradientColor=none;gradientDirection=north;strokeWidth=2;shape=mxgraph.networks.storage;rounded=0;shadow=0;comic=0;" parent="1" vertex="1">
          <mxGeometry x="810" y="656.5" width="40" height="40" as="geometry" />
        </mxCell>
        <mxCell id="L6lRWaiFYsqNyg9JIEbJ-43" value="" style="rounded=0;orthogonalLoop=1;jettySize=auto;html=1;endArrow=none;endFill=0;" parent="1" source="L6lRWaiFYsqNyg9JIEbJ-44" target="L6lRWaiFYsqNyg9JIEbJ-45" edge="1">
          <mxGeometry relative="1" as="geometry" />
        </mxCell>
        <mxCell id="L6lRWaiFYsqNyg9JIEbJ-44" value="" style="fontColor=#0066CC;verticalAlign=top;verticalLabelPosition=bottom;labelPosition=center;align=center;html=1;fillColor=#CCCCCC;strokeColor=#6881B3;gradientColor=none;gradientDirection=north;strokeWidth=2;shape=mxgraph.networks.storage;rounded=0;shadow=0;comic=0;" parent="1" vertex="1">
          <mxGeometry x="810" y="723.5" width="40" height="40" as="geometry" />
        </mxCell>
        <mxCell id="L6lRWaiFYsqNyg9JIEbJ-45" value="" style="fontColor=#0066CC;verticalAlign=top;verticalLabelPosition=bottom;labelPosition=center;align=center;html=1;fillColor=#CCCCCC;strokeColor=#6881B3;gradientColor=none;gradientDirection=north;strokeWidth=2;shape=mxgraph.networks.storage;rounded=0;shadow=0;comic=0;" parent="1" vertex="1">
          <mxGeometry x="900" y="686.5" width="40" height="40" as="geometry" />
        </mxCell>
        <mxCell id="L6lRWaiFYsqNyg9JIEbJ-46" value="" style="rounded=0;orthogonalLoop=1;jettySize=auto;html=1;endArrow=none;endFill=0;" parent="1" source="L6lRWaiFYsqNyg9JIEbJ-44" target="L6lRWaiFYsqNyg9JIEbJ-42" edge="1">
          <mxGeometry relative="1" as="geometry">
            <mxPoint x="900" y="825.0714285714284" as="sourcePoint" />
            <mxPoint x="940" y="807.9285714285713" as="targetPoint" />
          </mxGeometry>
        </mxCell>
        <mxCell id="L6lRWaiFYsqNyg9JIEbJ-47" value="" style="rounded=0;orthogonalLoop=1;jettySize=auto;html=1;endArrow=none;endFill=0;" parent="1" source="L6lRWaiFYsqNyg9JIEbJ-48" target="L6lRWaiFYsqNyg9JIEbJ-51" edge="1">
          <mxGeometry relative="1" as="geometry">
            <mxPoint x="1040" y="662.0714285714284" as="sourcePoint" />
            <mxPoint x="1080" y="644.9285714285713" as="targetPoint" />
          </mxGeometry>
        </mxCell>
        <mxCell id="L6lRWaiFYsqNyg9JIEbJ-48" value="" style="fontColor=#0066CC;verticalAlign=top;verticalLabelPosition=bottom;labelPosition=center;align=center;html=1;fillColor=#CCCCCC;strokeColor=#6881B3;gradientColor=none;gradientDirection=north;strokeWidth=2;shape=mxgraph.networks.storage;rounded=0;shadow=0;comic=0;" parent="1" vertex="1">
          <mxGeometry x="960" y="503.5" width="40" height="40" as="geometry" />
        </mxCell>
        <mxCell id="L6lRWaiFYsqNyg9JIEbJ-49" value="" style="rounded=0;orthogonalLoop=1;jettySize=auto;html=1;endArrow=none;endFill=0;" parent="1" source="L6lRWaiFYsqNyg9JIEbJ-50" target="L6lRWaiFYsqNyg9JIEbJ-51" edge="1">
          <mxGeometry relative="1" as="geometry" />
        </mxCell>
        <mxCell id="L6lRWaiFYsqNyg9JIEbJ-50" value="" style="fontColor=#0066CC;verticalAlign=top;verticalLabelPosition=bottom;labelPosition=center;align=center;html=1;fillColor=#CCCCCC;strokeColor=#6881B3;gradientColor=none;gradientDirection=north;strokeWidth=2;shape=mxgraph.networks.storage;rounded=0;shadow=0;comic=0;" parent="1" vertex="1">
          <mxGeometry x="960" y="570.5" width="40" height="40" as="geometry" />
        </mxCell>
        <mxCell id="L6lRWaiFYsqNyg9JIEbJ-51" value="" style="fontColor=#0066CC;verticalAlign=top;verticalLabelPosition=bottom;labelPosition=center;align=center;html=1;fillColor=#CCCCCC;strokeColor=#6881B3;gradientColor=none;gradientDirection=north;strokeWidth=2;shape=mxgraph.networks.storage;rounded=0;shadow=0;comic=0;" parent="1" vertex="1">
          <mxGeometry x="1050" y="533.5" width="40" height="40" as="geometry" />
        </mxCell>
        <mxCell id="L6lRWaiFYsqNyg9JIEbJ-52" value="" style="rounded=0;orthogonalLoop=1;jettySize=auto;html=1;endArrow=none;endFill=0;" parent="1" source="L6lRWaiFYsqNyg9JIEbJ-50" target="L6lRWaiFYsqNyg9JIEbJ-48" edge="1">
          <mxGeometry relative="1" as="geometry">
            <mxPoint x="1050" y="672.0714285714284" as="sourcePoint" />
            <mxPoint x="1090" y="654.9285714285713" as="targetPoint" />
          </mxGeometry>
        </mxCell>
        <mxCell id="L6lRWaiFYsqNyg9JIEbJ-54" value="" style="edgeStyle=orthogonalEdgeStyle;rounded=0;orthogonalLoop=1;jettySize=auto;html=1;endArrow=classic;endFill=1;fontSize=16;" parent="1" source="L6lRWaiFYsqNyg9JIEbJ-53" target="L6lRWaiFYsqNyg9JIEbJ-20" edge="1">
          <mxGeometry relative="1" as="geometry" />
        </mxCell>
        <mxCell id="L6lRWaiFYsqNyg9JIEbJ-53" value="&lt;div&gt;Load Balancer &lt;br&gt;or&lt;br&gt;Firewall&lt;br&gt;&lt;/div&gt;" style="rounded=0;whiteSpace=wrap;html=1;fontSize=16;" parent="1" vertex="1">
          <mxGeometry x="650" y="252.5" width="100" height="104" as="geometry" />
        </mxCell>
        <mxCell id="L6lRWaiFYsqNyg9JIEbJ-56" value="" style="endArrow=classic;html=1;fontSize=16;" parent="1" source="L6lRWaiFYsqNyg9JIEbJ-20" target="L6lRWaiFYsqNyg9JIEbJ-4" edge="1">
          <mxGeometry width="50" height="50" relative="1" as="geometry">
            <mxPoint x="240" y="555.5" as="sourcePoint" />
            <mxPoint x="290" y="505.5" as="targetPoint" />
          </mxGeometry>
        </mxCell>
        <UserObject label="https://webapp.example.com&lt;br&gt;&lt;div&gt;https://nginz-https.example.com&lt;/div&gt;(...)" link="https://wire-app.example.comhttps://wire-api.example.com(...)" id="L6lRWaiFYsqNyg9JIEbJ-68">
          <mxCell style="text;html=1;fontSize=16;" parent="1" vertex="1">
            <mxGeometry x="339" y="274" width="250" height="30" as="geometry" />
          </mxCell>
        </UserObject>
        <mxCell id="L6lRWaiFYsqNyg9JIEbJ-69" value="Wire (Mobile, Desktop or Browser) Client" style="text;html=1;strokeColor=none;fillColor=none;align=center;verticalAlign=middle;whiteSpace=wrap;rounded=0;fontSize=16;" parent="1" vertex="1">
          <mxGeometry x="415" y="170.5" width="320" height="20" as="geometry" />
        </mxCell>
        <mxCell id="L6lRWaiFYsqNyg9JIEbJ-71" value="" style="endArrow=classic;html=1;fontSize=16;exitX=0.5;exitY=1;exitDx=0;exitDy=0;entryX=0;entryY=0.5;entryDx=0;entryDy=0;edgeStyle=orthogonalEdgeStyle;" parent="1" source="L6lRWaiFYsqNyg9JIEbJ-69" target="L6lRWaiFYsqNyg9JIEbJ-53" edge="1">
          <mxGeometry width="50" height="50" relative="1" as="geometry">
            <mxPoint x="525" y="393" as="sourcePoint" />
            <mxPoint x="575" y="343" as="targetPoint" />
          </mxGeometry>
        </mxCell>
        <mxCell id="L6lRWaiFYsqNyg9JIEbJ-72" value="" style="endArrow=classic;html=1;fontSize=16;exitX=0.5;exitY=1;exitDx=0;exitDy=0;edgeStyle=orthogonalEdgeStyle;entryX=-0.011;entryY=0.515;entryDx=0;entryDy=0;entryPerimeter=0;" parent="1" source="L6lRWaiFYsqNyg9JIEbJ-69" target="JztUD99mnlcokoezC9-C-2" edge="1">
          <mxGeometry width="50" height="50" relative="1" as="geometry">
            <mxPoint x="554" y="327.9999999999999" as="sourcePoint" />
            <mxPoint x="630" y="440" as="targetPoint" />
            <Array as="points">
              <mxPoint x="575" y="433" />
            </Array>
          </mxGeometry>
        </mxCell>
        <mxCell id="JztUD99mnlcokoezC9-C-21" value="" style="rounded=1;whiteSpace=wrap;html=1;strokeColor=#036897;shadow=0;comic=0;strokeWidth=2;align=center;verticalAlign=top;arcSize=11;fontFamily=Helvetica;fontSize=20;fontColor=#6881B3;fillColor=none;" vertex="1" parent="1">
          <mxGeometry x="339" y="560" width="300" height="220" as="geometry" />
        </mxCell>
        <mxCell id="JztUD99mnlcokoezC9-C-2" value="&lt;div&gt;Load Balancer &lt;br&gt;or&lt;br&gt;Firewall&lt;br&gt;&lt;/div&gt;" style="rounded=0;whiteSpace=wrap;html=1;fontSize=16;" vertex="1" parent="1">
          <mxGeometry x="650" y="379.5" width="100" height="104" as="geometry" />
        </mxCell>
        <mxCell id="JztUD99mnlcokoezC9-C-9" value="SFT" style="rounded=0;whiteSpace=wrap;html=1;" vertex="1" parent="1">
          <mxGeometry x="510" y="570" width="100" height="104.5" as="geometry" />
        </mxCell>
        <mxCell id="JztUD99mnlcokoezC9-C-10" value="SFT" style="rounded=0;whiteSpace=wrap;html=1;" vertex="1" parent="1">
          <mxGeometry x="520" y="586" width="100" height="104.5" as="geometry" />
        </mxCell>
        <mxCell id="JztUD99mnlcokoezC9-C-16" value="" style="curved=1;endArrow=classic;html=1;rounded=0;exitX=0.5;exitY=1;exitDx=0;exitDy=0;entryX=0.513;entryY=0.999;entryDx=0;entryDy=0;entryPerimeter=0;" edge="1" parent="1" source="JztUD99mnlcokoezC9-C-2" target="JztUD99mnlcokoezC9-C-10">
          <mxGeometry width="50" height="50" relative="1" as="geometry">
            <mxPoint x="450" y="631.5" as="sourcePoint" />
            <mxPoint x="680" y="700" as="targetPoint" />
            <Array as="points">
              <mxPoint x="700" y="580" />
              <mxPoint x="700" y="690" />
              <mxPoint x="700" y="710" />
              <mxPoint x="680" y="710" />
              <mxPoint x="620" y="710" />
              <mxPoint x="600" y="710" />
              <mxPoint x="580" y="710" />
              <mxPoint x="570" y="710" />
            </Array>
          </mxGeometry>
        </mxCell>
        <mxCell id="L6lRWaiFYsqNyg9JIEbJ-57" value="&lt;div&gt;Coturn&lt;/div&gt;" style="rounded=0;whiteSpace=wrap;html=1;fontSize=16;" parent="1" vertex="1">
          <mxGeometry x="350" y="570.5" width="100" height="104" as="geometry" />
        </mxCell>
        <mxCell id="L6lRWaiFYsqNyg9JIEbJ-59" value="Coturn" style="rounded=0;whiteSpace=wrap;html=1;fontSize=16;" parent="1" vertex="1">
          <mxGeometry x="360" y="586" width="100" height="104" as="geometry" />
        </mxCell>
        <mxCell id="JztUD99mnlcokoezC9-C-23" value="" style="curved=1;endArrow=classic;html=1;rounded=0;entryX=0.48;entryY=1.003;entryDx=0;entryDy=0;entryPerimeter=0;exitX=0.5;exitY=1;exitDx=0;exitDy=0;" edge="1" parent="1" source="JztUD99mnlcokoezC9-C-2" target="L6lRWaiFYsqNyg9JIEbJ-59">
          <mxGeometry width="50" height="50" relative="1" as="geometry">
            <mxPoint x="620" y="640" as="sourcePoint" />
            <mxPoint x="670" y="590" as="targetPoint" />
            <Array as="points">
              <mxPoint x="700" y="690" />
              <mxPoint x="700" y="710" />
              <mxPoint x="680" y="710" />
              <mxPoint x="440" y="710" />
              <mxPoint x="408" y="710" />
              <mxPoint x="408" y="700" />
            </Array>
          </mxGeometry>
        </mxCell>
        <mxCell id="JztUD99mnlcokoezC9-C-28" value="Wire Calling Services" style="text;html=1;align=center;verticalAlign=middle;whiteSpace=wrap;rounded=0;fontSize=16;" vertex="1" parent="1">
          <mxGeometry x="406.87" y="735.25" width="164.25" height="16.5" as="geometry" />
        </mxCell>
      </root>
    </mxGraphModel>
  </diagram>
</mxfile>
